<svg xmlns="http://www.w3.org/2000/svg" width="648" height="648"><path d="M350.798 440.491l67.469-25.139 25.139 67.468-51.165 50.678-67.226-25.781 25.783-67.226m-.886 185.617l67.469-25.139 25.14 67.468-51.166 50.678-67.225-25.781 25.782-67.226m185.616.885l67.469-25.139 25.141 67.468L576.972 720l-67.226-25.781 25.782-67.226m.886-185.616l67.469-25.141 25.139 67.469-51.165 50.679-67.225-25.781 25.782-67.226m-184.73-186.502l67.467-25.14 25.141 67.468-51.166 50.679L325.9 322.1l25.784-67.225m185.616.885l67.469-25.14 25.139 67.468-51.165 50.68-67.226-25.783L537.3 255.76m.885-185.616l67.468-25.141 25.141 67.469-51.166 50.679-67.226-25.782 25.783-67.225m-185.617-.886l67.469-25.14 25.14 67.468-51.166 50.68-67.225-25.783 25.782-67.225M166.066 253.989l67.469-25.139 25.14 67.467-51.165 50.679-67.227-25.781 25.783-67.226m.886-185.616l67.468-25.141 25.141 67.469-51.166 50.679-67.226-25.782 25.783-67.225m-185.617-.886l67.469-25.14 25.139 67.468-51.165 50.68-67.226-25.782 25.783-67.226m-.885 185.617l67.468-25.14 25.14 67.468-51.165 50.679-67.226-25.782 25.783-67.225m184.731 186.501l67.468-25.139 25.14 67.469-51.165 50.678-67.226-25.781 25.783-67.227m-185.617-.884l67.468-25.141 25.141 67.469-51.166 50.68-67.226-25.783 25.783-67.225m-.885 185.616l67.468-25.14 25.14 67.469-51.165 50.678-67.226-25.782 25.783-67.225m185.617.886l67.468-25.14 25.139 67.468-51.165 50.678-67.225-25.781 25.783-67.225" fill="#FEC200" stroke="#000"/><path d="M443.406 482.82l-25.139-67.468 67.467-25.141 50.679 51.166-25.781 67.226-67.226-25.783m-.885 185.617l-25.14-67.468 67.468-25.141 50.679 51.166-25.782 67.225-67.225-25.782m185.617.885l-25.141-67.468 67.469-25.14 50.679 51.165-25.783 67.225-67.224-25.782m.884-185.617l-25.139-67.469 67.468-25.139 50.679 51.166-25.782 67.225-67.226-25.783m-184.73-186.502l-25.141-67.468 67.469-25.14 50.679 51.165-25.782 67.225-67.225-25.782m185.616.885l-25.139-67.468 67.467-25.14 50.679 51.166-25.781 67.225-67.226-25.783m.886-185.616l-25.141-67.469 67.469-25.14 50.679 51.166-25.782 67.225-67.225-25.782m-185.617-.886l-25.14-67.468 67.468-25.14 50.68 51.166-25.783 67.225-67.225-25.783M258.675 296.317l-25.14-67.467 67.468-25.141 50.68 51.166L325.9 322.1l-67.225-25.783m.886-185.616L234.42 43.232l67.469-25.139 50.678 51.165-25.781 67.225-67.225-25.782m-185.618-.886L48.804 42.347l67.467-25.14 50.68 51.166-25.782 67.225-67.226-25.783m-.885 185.617l-25.14-67.468 67.469-25.14 50.678 51.165-25.782 67.226-67.225-25.783m184.731 186.503l-25.14-67.469 67.469-25.14 50.679 51.166-25.782 67.225-67.226-25.782m-185.616-.886L47.032 413.58l67.469-25.14 50.68 51.166-25.783 67.226-67.225-25.783m-.886 185.617l-25.14-67.469 67.468-25.139 50.68 51.165-25.782 67.225-67.226-25.782m185.616.885l-25.139-67.468 67.468-25.14 50.679 51.165-25.781 67.226-67.227-25.783" fill="#0081CD" stroke="#000"/><path d="M485.734 390.211l-67.467 25.141-25.141-67.469 51.165-50.679 67.226 25.781-25.783 67.226m-.885 185.617l-67.468 25.141-25.14-67.469 51.165-50.68 67.226 25.783-25.783 67.225m185.617.886l-67.469 25.14-25.14-67.469 51.166-50.679 67.225 25.782-25.782 67.226m.885-185.617l-67.468 25.139-25.14-67.468 51.165-50.678 67.226 25.781-25.783 67.226M486.62 204.595l-67.469 25.14-25.139-67.468 51.165-50.68 67.225 25.782-25.782 67.226m185.616.885l-67.467 25.14-25.141-67.468 51.166-50.679 67.225 25.781-25.783 67.226m.886-185.617l-67.469 25.14-25.139-67.468 51.166-50.679 67.224 25.782-25.782 67.225m-185.617-.885l-67.468 25.14-25.14-67.469 51.165-50.678 67.226 25.781-25.783 67.226M301.003 203.709l-67.468 25.141-25.139-67.469 51.164-50.679 67.226 25.781-25.783 67.226m.886-185.616L234.42 43.232l-25.14-67.467 51.165-50.68 67.226 25.782-25.782 67.226m-185.618-.886l-67.467 25.14-25.141-67.468L74.829-75.8l67.226 25.781-25.784 67.226m-.884 185.617l-67.469 25.14-25.14-67.468 51.166-50.68 67.225 25.782-25.782 67.226m184.731 186.502l-67.469 25.14-25.139-67.469 51.165-50.678L325.9 322.1l-25.782 67.226m-185.617-.886l-67.469 25.14-25.139-67.469 51.166-50.678 67.224 25.782-25.782 67.225m-.886 185.618l-67.468 25.139-25.14-67.468 51.166-50.679 67.225 25.782-25.783 67.226m185.617.885l-67.468 25.14-25.14-67.469 51.166-50.678 67.225 25.781-25.783 67.226" fill="#AAD5EF" stroke="#000"/><path d="M393.126 347.883l25.141 67.469-67.469 25.139-50.679-51.165L325.9 322.1l67.226 25.783m-.885 185.617l25.14 67.469-67.469 25.139-50.679-51.166 25.782-67.225 67.226 25.783m185.616.885l25.14 67.469-67.469 25.139-50.678-51.165 25.782-67.225 67.225 25.782m.886-185.617l25.14 67.468-67.469 25.141-50.679-51.166 25.782-67.226 67.226 25.783M394.012 162.267l25.139 67.468-67.467 25.14-50.68-51.166 25.782-67.226 67.226 25.784m185.616.885l25.141 67.468-67.469 25.14-50.679-51.165 25.781-67.226 67.226 25.783m.886-185.617l25.139 67.468-67.468 25.141-50.679-51.166 25.782-67.226 67.226 25.783m-185.617-.886l25.14 67.469-67.469 25.14-50.678-51.166 25.781-67.225 67.226 25.782M208.396 161.381l25.139 67.469-67.469 25.139-50.678-51.165 25.781-67.226 67.227 25.783m.884-185.616l25.14 67.467-67.468 25.141-50.68-51.166 25.783-67.226 67.225 25.784m-185.617-.886l25.141 67.468-67.469 25.14-50.679-51.166 25.782-67.225 67.225 25.783m-.885 185.617l25.14 67.468-67.468 25.14-50.679-51.166 25.781-67.225 67.226 25.783M207.51 346.997l25.139 67.469-67.468 25.139-50.679-51.164 25.781-67.226 67.227 25.782m-185.617-.886l25.139 67.469-67.468 25.141-50.678-51.165 25.781-67.227 67.226 25.782m-.886 185.618l25.14 67.468-67.468 25.14L-72 573.172l25.781-67.226 67.226 25.783m185.617.885l25.14 67.469-67.468 25.14-50.68-51.166 25.782-67.225 67.226 25.782" fill="#FFEBAA" stroke="#000"/></svg>